# xmcd
#
# Track frame offsets:
#	150
#	11030
#	22457
#	35455
#	45406
#	57710
#	71194
#	83421
#	95778
#	105498
#	117776
#	127866
#	141061
#	150743
#	162355
#	174689
#	186686
#	197828
#	209140
#	223145
#	236623
#	247714
#	261103
#	273234
#
# Disc length: 3812 seconds
#
# Revision: 1
# Processed by: cddbd v1.5.2PL0 Copyright (c) Steve Scherf et al.
# Submitted via: audiograbber 1.83.01
#
DISCID=680ee218
DTITLE=Various Artist - Record 61 and 62 - Honky Tonk
DYEAR=1900
DGENRE=
TTITLE0=Webb Pierce - There Stands The Glass
TTITLE1=Ray Price - Crazy Arms
TTITLE2=Al Dexter - Pistol Pickin' Mama
TTITLE3=Hank Williams - Honky-Tonk Blues
TTITLE4=Floyd Tillman - I Love You So Much It Hurts Me
TTITLE5=Lefty Frizzell - If You've Got The Money I've Got The Time
TTITLE6=Ted Daffan - Born To Lose
TTITLE7=Hank Thompsom - Wild Side Of Life
TTITLE8=Faron Young - I've Got Five Dollars And It's Saturday Night
TTITLE9=Freddie Hart - Drink Up And Go Home
TTITLE10=Johnny Horton - Honky-Tonk Man
TTITLE11=Joe And Rose Lee Maphis - Dim Lights, Thick Smoke (And Loud Loud Music
TTITLE11=)
TTITLE12=Hank Thompson - A Six Pack To Go
TTITLE13=Warren Smith - I Don't Believe I Fall In Love Today
TTITLE14=Hank Williams - Honky Tonkin
TTITLE15=Floyd Tillman - Each Night At Nine
TTITLE16=Ted Daffan - Worried Mind
TTITLE17=Faron Young - Wine Me Up
TTITLE18=Lefty Frizzell - Always Late
TTITLE19=Ray Price - Heartaches By The Number
TTITLE20=Charlie Walker - Pick Me Up On Your Way Down
TTITLE21=Carl and Pearl Butler - Don't Let Me Cross Over
TTITLE22=Al Dexter - Wine Women And Sone
TTITLE23=George Jones - Color Of The Blues
EXTD=
EXTT0=
EXTT1=
EXTT2=
EXTT3=
EXTT4=
EXTT5=
EXTT6=
EXTT7=
EXTT8=
EXTT9=
EXTT10=
EXTT11=
EXTT12=
EXTT13=
EXTT14=
EXTT15=
EXTT16=
EXTT17=
EXTT18=
EXTT19=
EXTT20=
EXTT21=
EXTT22=
EXTT23=
PLAYORDER=
